<svg xmlns="http://www.w3.org/2000/svg" version="1.1" xmlns:xlink="http://www.w3.org/1999/xlink" xmlns:svgjs="http://svgjs.dev/svgjs" width="1440" height="600" preserveAspectRatio="none" viewBox="0 0 1440 600"><g mask="url(&quot;#SvgjsMask1529&quot;)" fill="none"><rect width="1440" height="600" x="0" y="0" fill="rgba(17, 24, 39, 1)"></rect><path d="M-86.1 401.7L-86.1 401.7" stroke="rgba(25, 40, 73, 0.93)" stroke-width="1.5"></path><path d="M-86.1 401.7L102.41 385.39" stroke="rgba(25, 40, 73, 0.93)" stroke-width="1.5"></path><path d="M-86.1 401.7L46.31 559.67" stroke="rgba(25, 40, 73, 0.93)" stroke-width="1.5"></path><path d="M-86.1 401.7L-48.11 678.68" stroke="rgba(25, 40, 73, 0.93)" stroke-width="1.5"></path><path d="M-86.1 401.7L110.59 663.1" stroke="rgba(25, 40, 73, 0.93)" stroke-width="1.5"></path><path d="M-86.1 401.7L226.08 506.79" stroke="rgba(25, 40, 73, 0.93)" stroke-width="1.5"></path><path d="M-86.1 401.7L252.37 408.64" stroke="rgba(25, 40, 73, 0.93)" stroke-width="1.5"></path><path d="M-48.11 678.68L-48.11 678.68" stroke="rgba(25, 40, 73, 0.93)" stroke-width="1.5"></path><path d="M-48.11 678.68L46.31 559.67" stroke="rgba(25, 40, 73, 0.93)" stroke-width="1.5"></path><path d="M-48.11 678.68L110.59 663.1" stroke="rgba(25, 40, 73, 0.93)" stroke-width="1.5"></path><path d="M-48.11 678.68L196.66 693.56" stroke="rgba(25, 40, 73, 0.93)" stroke-width="1.5"></path><path d="M102.41 385.39L102.41 385.39" stroke="rgba(25, 40, 73, 0.93)" stroke-width="1.5"></path><path d="M102.41 385.39L252.37 408.64" stroke="rgba(25, 40, 73, 0.93)" stroke-width="1.5"></path><path d="M102.41 385.39L226.08 506.79" stroke="rgba(25, 40, 73, 0.93)" stroke-width="1.5"></path><path d="M102.41 385.39L46.31 559.67" stroke="rgba(25, 40, 73, 0.93)" stroke-width="1.5"></path><path d="M46.31 559.67L46.31 559.67" stroke="rgba(25, 40, 73, 0.93)" stroke-width="1.5"></path><path d="M46.31 559.67L110.59 663.1" stroke="rgba(25, 40, 73, 0.93)" stroke-width="1.5"></path><path d="M110.59 663.1L110.59 663.1" stroke="rgba(25, 40, 73, 0.93)" stroke-width="1.5"></path><path d="M110.59 663.1L196.66 693.56" stroke="rgba(25, 40, 73, 0.93)" stroke-width="1.5"></path><path d="M252.37 408.64L252.37 408.64" stroke="rgba(25, 40, 73, 0.93)" stroke-width="1.5"></path><path d="M252.37 408.64L226.08 506.79" stroke="rgba(25, 40, 73, 0.93)" stroke-width="1.5"></path><path d="M252.37 408.64L374.9 385.56" stroke="rgba(25, 40, 73, 0.93)" stroke-width="1.5"></path><path d="M252.37 408.64L398.63 490.52" stroke="rgba(25, 40, 73, 0.93)" stroke-width="1.5"></path><path d="M252.37 408.64L46.31 559.67" stroke="rgba(25, 40, 73, 0.93)" stroke-width="1.5"></path><path d="M252.37 408.64L500.43 488.33" stroke="rgba(25, 40, 73, 0.93)" stroke-width="1.5"></path><path d="M226.08 506.79L226.08 506.79" stroke="rgba(25, 40, 73, 0.93)" stroke-width="1.5"></path><path d="M226.08 506.79L398.63 490.52" stroke="rgba(25, 40, 73, 0.93)" stroke-width="1.5"></path><path d="M196.66 693.56L196.66 693.56" stroke="rgba(25, 40, 73, 0.93)" stroke-width="1.5"></path><path d="M196.66 693.56L353.24 660.38" stroke="rgba(25, 40, 73, 0.93)" stroke-width="1.5"></path><path d="M196.66 693.56L226.08 506.79" stroke="rgba(25, 40, 73, 0.93)" stroke-width="1.5"></path><path d="M196.66 693.56L46.31 559.67" stroke="rgba(25, 40, 73, 0.93)" stroke-width="1.5"></path><path d="M196.66 693.56L398.63 490.52" stroke="rgba(25, 40, 73, 0.93)" stroke-width="1.5"></path><path d="M374.9 385.56L374.9 385.56" stroke="rgba(25, 40, 73, 0.93)" stroke-width="1.5"></path><path d="M374.9 385.56L398.63 490.52" stroke="rgba(25, 40, 73, 0.93)" stroke-width="1.5"></path><path d="M398.63 490.52L398.63 490.52" stroke="rgba(25, 40, 73, 0.93)" stroke-width="1.5"></path><path d="M398.63 490.52L500.43 488.33" stroke="rgba(25, 40, 73, 0.93)" stroke-width="1.5"></path><path d="M398.63 490.52L534.46 389.62" stroke="rgba(25, 40, 73, 0.93)" stroke-width="1.5"></path><path d="M353.24 660.38L353.24 660.38" stroke="rgba(25, 40, 73, 0.93)" stroke-width="1.5"></path><path d="M353.24 660.38L501.01 711.61" stroke="rgba(25, 40, 73, 0.93)" stroke-width="1.5"></path><path d="M534.46 389.62L534.46 389.62" stroke="rgba(25, 40, 73, 0.93)" stroke-width="1.5"></path><path d="M534.46 389.62L500.43 488.33" stroke="rgba(25, 40, 73, 0.93)" stroke-width="1.5"></path><path d="M534.46 389.62L644.9 386.48" stroke="rgba(25, 40, 73, 0.93)" stroke-width="1.5"></path><path d="M534.46 389.62L374.9 385.56" stroke="rgba(25, 40, 73, 0.93)" stroke-width="1.5"></path><path d="M500.43 488.33L500.43 488.33" stroke="rgba(25, 40, 73, 0.93)" stroke-width="1.5"></path><path d="M500.43 488.33L644.87 559.91" stroke="rgba(25, 40, 73, 0.93)" stroke-width="1.5"></path><path d="M500.43 488.33L374.9 385.56" stroke="rgba(25, 40, 73, 0.93)" stroke-width="1.5"></path><path d="M500.43 488.33L644.9 386.48" stroke="rgba(25, 40, 73, 0.93)" stroke-width="1.5"></path><path d="M501.01 711.61L501.01 711.61" stroke="rgba(25, 40, 73, 0.93)" stroke-width="1.5"></path><path d="M501.01 711.61L651.17 663.77" stroke="rgba(25, 40, 73, 0.93)" stroke-width="1.5"></path><path d="M663.91 240.3L663.91 240.3" stroke="rgba(25, 40, 73, 0.93)" stroke-width="1.5"></path><path d="M663.91 240.3L644.9 386.48" stroke="rgba(25, 40, 73, 0.93)" stroke-width="1.5"></path><path d="M663.91 240.3L840.17 195.72" stroke="rgba(25, 40, 73, 0.93)" stroke-width="1.5"></path><path d="M663.91 240.3L534.46 389.62" stroke="rgba(25, 40, 73, 0.93)" stroke-width="1.5"></path><path d="M663.91 240.3L809.48 382.52" stroke="rgba(25, 40, 73, 0.93)" stroke-width="1.5"></path><path d="M663.91 240.3L500.43 488.33" stroke="rgba(25, 40, 73, 0.93)" stroke-width="1.5"></path><path d="M663.91 240.3L644.87 559.91" stroke="rgba(25, 40, 73, 0.93)" stroke-width="1.5"></path><path d="M644.9 386.48L644.9 386.48" stroke="rgba(25, 40, 73, 0.93)" stroke-width="1.5"></path><path d="M644.9 386.48L809.48 382.52" stroke="rgba(25, 40, 73, 0.93)" stroke-width="1.5"></path><path d="M644.9 386.48L644.87 559.91" stroke="rgba(25, 40, 73, 0.93)" stroke-width="1.5"></path><path d="M644.87 559.91L644.87 559.91" stroke="rgba(25, 40, 73, 0.93)" stroke-width="1.5"></path><path d="M644.87 559.91L651.17 663.77" stroke="rgba(25, 40, 73, 0.93)" stroke-width="1.5"></path><path d="M651.17 663.77L651.17 663.77" stroke="rgba(25, 40, 73, 0.93)" stroke-width="1.5"></path><path d="M840.17 195.72L840.17 195.72" stroke="rgba(25, 40, 73, 0.93)" stroke-width="1.5"></path><path d="M840.17 195.72L973.87 108.35" stroke="rgba(25, 40, 73, 0.93)" stroke-width="1.5"></path><path d="M840.17 195.72L997.85 235.43" stroke="rgba(25, 40, 73, 0.93)" stroke-width="1.5"></path><path d="M840.17 195.72L809.48 382.52" stroke="rgba(25, 40, 73, 0.93)" stroke-width="1.5"></path><path d="M840.17 195.72L992.19 341.91" stroke="rgba(25, 40, 73, 0.93)" stroke-width="1.5"></path><path d="M809.48 382.52L809.48 382.52" stroke="rgba(25, 40, 73, 0.93)" stroke-width="1.5"></path><path d="M809.48 382.52L858.91 505.7" stroke="rgba(25, 40, 73, 0.93)" stroke-width="1.5"></path><path d="M858.91 505.7L858.91 505.7" stroke="rgba(25, 40, 73, 0.93)" stroke-width="1.5"></path><path d="M858.91 505.7L983.75 539.42" stroke="rgba(25, 40, 73, 0.93)" stroke-width="1.5"></path><path d="M858.91 505.7L857.16 640.29" stroke="rgba(25, 40, 73, 0.93)" stroke-width="1.5"></path><path d="M858.91 505.7L945.72 641.93" stroke="rgba(25, 40, 73, 0.93)" stroke-width="1.5"></path><path d="M858.91 505.7L992.19 341.91" stroke="rgba(25, 40, 73, 0.93)" stroke-width="1.5"></path><path d="M857.16 640.29L857.16 640.29" stroke="rgba(25, 40, 73, 0.93)" stroke-width="1.5"></path><path d="M857.16 640.29L945.72 641.93" stroke="rgba(25, 40, 73, 0.93)" stroke-width="1.5"></path><path d="M857.16 640.29L983.75 539.42" stroke="rgba(25, 40, 73, 0.93)" stroke-width="1.5"></path><path d="M857.16 640.29L651.17 663.77" stroke="rgba(25, 40, 73, 0.93)" stroke-width="1.5"></path><path d="M988.38 -84.26L988.38 -84.26" stroke="rgba(25, 40, 73, 0.93)" stroke-width="1.5"></path><path d="M988.38 -84.26L1109.07 -82.92" stroke="rgba(25, 40, 73, 0.93)" stroke-width="1.5"></path><path d="M988.38 -84.26L973.87 108.35" stroke="rgba(25, 40, 73, 0.93)" stroke-width="1.5"></path><path d="M988.38 -84.26L1154.69 84.73" stroke="rgba(25, 40, 73, 0.93)" stroke-width="1.5"></path><path d="M973.87 108.35L973.87 108.35" stroke="rgba(25, 40, 73, 0.93)" stroke-width="1.5"></path><path d="M973.87 108.35L997.85 235.43" stroke="rgba(25, 40, 73, 0.93)" stroke-width="1.5"></path><path d="M973.87 108.35L1154.69 84.73" stroke="rgba(25, 40, 73, 0.93)" stroke-width="1.5"></path><path d="M997.85 235.43L997.85 235.43" stroke="rgba(25, 40, 73, 0.93)" stroke-width="1.5"></path><path d="M997.85 235.43L992.19 341.91" stroke="rgba(25, 40, 73, 0.93)" stroke-width="1.5"></path><path d="M997.85 235.43L1131.38 367.55" stroke="rgba(25, 40, 73, 0.93)" stroke-width="1.5"></path><path d="M997.85 235.43L1154.69 84.73" stroke="rgba(25, 40, 73, 0.93)" stroke-width="1.5"></path><path d="M992.19 341.91L992.19 341.91" stroke="rgba(25, 40, 73, 0.93)" stroke-width="1.5"></path><path d="M992.19 341.91L1131.38 367.55" stroke="rgba(25, 40, 73, 0.93)" stroke-width="1.5"></path><path d="M992.19 341.91L809.48 382.52" stroke="rgba(25, 40, 73, 0.93)" stroke-width="1.5"></path><path d="M992.19 341.91L983.75 539.42" stroke="rgba(25, 40, 73, 0.93)" stroke-width="1.5"></path><path d="M983.75 539.42L983.75 539.42" stroke="rgba(25, 40, 73, 0.93)" stroke-width="1.5"></path><path d="M983.75 539.42L945.72 641.93" stroke="rgba(25, 40, 73, 0.93)" stroke-width="1.5"></path><path d="M983.75 539.42L1157.22 510.22" stroke="rgba(25, 40, 73, 0.93)" stroke-width="1.5"></path><path d="M945.72 641.93L945.72 641.93" stroke="rgba(25, 40, 73, 0.93)" stroke-width="1.5"></path><path d="M1109.07 -82.92L1109.07 -82.92" stroke="rgba(25, 40, 73, 0.93)" stroke-width="1.5"></path><path d="M1109.07 -82.92L1254.09 -68.48" stroke="rgba(25, 40, 73, 0.93)" stroke-width="1.5"></path><path d="M1109.07 -82.92L1154.69 84.73" stroke="rgba(25, 40, 73, 0.93)" stroke-width="1.5"></path><path d="M1109.07 -82.92L973.87 108.35" stroke="rgba(25, 40, 73, 0.93)" stroke-width="1.5"></path><path d="M1109.07 -82.92L1388.25 -105.42" stroke="rgba(25, 40, 73, 0.93)" stroke-width="1.5"></path><path d="M1109.07 -82.92L997.85 235.43" stroke="rgba(25, 40, 73, 0.93)" stroke-width="1.5"></path><path d="M1154.69 84.73L1154.69 84.73" stroke="rgba(25, 40, 73, 0.93)" stroke-width="1.5"></path><path d="M1154.69 84.73L1254.09 -68.48" stroke="rgba(25, 40, 73, 0.93)" stroke-width="1.5"></path><path d="M1154.69 84.73L1295.1 236.31" stroke="rgba(25, 40, 73, 0.93)" stroke-width="1.5"></path><path d="M1131.38 367.55L1131.38 367.55" stroke="rgba(25, 40, 73, 0.93)" stroke-width="1.5"></path><path d="M1131.38 367.55L1157.22 510.22" stroke="rgba(25, 40, 73, 0.93)" stroke-width="1.5"></path><path d="M1157.22 510.22L1157.22 510.22" stroke="rgba(25, 40, 73, 0.93)" stroke-width="1.5"></path><path d="M1157.22 510.22L1260.56 513.34" stroke="rgba(25, 40, 73, 0.93)" stroke-width="1.5"></path><path d="M1157.22 510.22L1157.34 702.14" stroke="rgba(25, 40, 73, 0.93)" stroke-width="1.5"></path><path d="M1157.34 702.14L1157.34 702.14" stroke="rgba(25, 40, 73, 0.93)" stroke-width="1.5"></path><path d="M1157.34 702.14L1260.56 513.34" stroke="rgba(25, 40, 73, 0.93)" stroke-width="1.5"></path><path d="M1157.34 702.14L945.72 641.93" stroke="rgba(25, 40, 73, 0.93)" stroke-width="1.5"></path><path d="M1157.34 702.14L983.75 539.42" stroke="rgba(25, 40, 73, 0.93)" stroke-width="1.5"></path><path d="M1254.09 -68.48L1254.09 -68.48" stroke="rgba(25, 40, 73, 0.93)" stroke-width="1.5"></path><path d="M1254.09 -68.48L1388.25 -105.42" stroke="rgba(25, 40, 73, 0.93)" stroke-width="1.5"></path><path d="M1254.09 -68.48L1411.47 76.39" stroke="rgba(25, 40, 73, 0.93)" stroke-width="1.5"></path><path d="M1254.09 -68.48L988.38 -84.26" stroke="rgba(25, 40, 73, 0.93)" stroke-width="1.5"></path><path d="M1295.1 236.31L1295.1 236.31" stroke="rgba(25, 40, 73, 0.93)" stroke-width="1.5"></path><path d="M1295.1 236.31L1402.86 373.42" stroke="rgba(25, 40, 73, 0.93)" stroke-width="1.5"></path><path d="M1295.1 236.31L1411.47 76.39" stroke="rgba(25, 40, 73, 0.93)" stroke-width="1.5"></path><path d="M1260.56 513.34L1260.56 513.34" stroke="rgba(25, 40, 73, 0.93)" stroke-width="1.5"></path><path d="M1260.56 513.34L1131.38 367.55" stroke="rgba(25, 40, 73, 0.93)" stroke-width="1.5"></path><path d="M1388.25 -105.42L1388.25 -105.42" stroke="rgba(25, 40, 73, 0.93)" stroke-width="1.5"></path><path d="M1411.47 76.39L1411.47 76.39" stroke="rgba(25, 40, 73, 0.93)" stroke-width="1.5"></path><path d="M1411.47 76.39L1575.21 98.22" stroke="rgba(25, 40, 73, 0.93)" stroke-width="1.5"></path><path d="M1411.47 76.39L1388.25 -105.42" stroke="rgba(25, 40, 73, 0.93)" stroke-width="1.5"></path><path d="M1411.47 76.39L1602.4 243.05" stroke="rgba(25, 40, 73, 0.93)" stroke-width="1.5"></path><path d="M1402.86 373.42L1402.86 373.42" stroke="rgba(25, 40, 73, 0.93)" stroke-width="1.5"></path><path d="M1402.86 373.42L1260.56 513.34" stroke="rgba(25, 40, 73, 0.93)" stroke-width="1.5"></path><path d="M1402.86 373.42L1593.24 489.61" stroke="rgba(25, 40, 73, 0.93)" stroke-width="1.5"></path><path d="M1412.47 639.32L1412.47 639.32" stroke="rgba(25, 40, 73, 0.93)" stroke-width="1.5"></path><path d="M1412.47 639.32L1579.66 657.96" stroke="rgba(25, 40, 73, 0.93)" stroke-width="1.5"></path><path d="M1412.47 639.32L1260.56 513.34" stroke="rgba(25, 40, 73, 0.93)" stroke-width="1.5"></path><path d="M1595.71 -101L1595.71 -101" stroke="rgba(25, 40, 73, 0.93)" stroke-width="1.5"></path><path d="M1595.71 -101L1575.21 98.22" stroke="rgba(25, 40, 73, 0.93)" stroke-width="1.5"></path><path d="M1595.71 -101L1388.25 -105.42" stroke="rgba(25, 40, 73, 0.93)" stroke-width="1.5"></path><path d="M1595.71 -101L1411.47 76.39" stroke="rgba(25, 40, 73, 0.93)" stroke-width="1.5"></path><path d="M1595.71 -101L1254.09 -68.48" stroke="rgba(25, 40, 73, 0.93)" stroke-width="1.5"></path><path d="M1595.71 -101L1602.4 243.05" stroke="rgba(25, 40, 73, 0.93)" stroke-width="1.5"></path><path d="M1575.21 98.22L1575.21 98.22" stroke="rgba(25, 40, 73, 0.93)" stroke-width="1.5"></path><path d="M1575.21 98.22L1602.4 243.05" stroke="rgba(25, 40, 73, 0.93)" stroke-width="1.5"></path><path d="M1575.21 98.22L1388.25 -105.42" stroke="rgba(25, 40, 73, 0.93)" stroke-width="1.5"></path><path d="M1602.4 243.05L1602.4 243.05" stroke="rgba(25, 40, 73, 0.93)" stroke-width="1.5"></path><path d="M1602.4 243.05L1402.86 373.42" stroke="rgba(25, 40, 73, 0.93)" stroke-width="1.5"></path><path d="M1602.4 243.05L1593.24 489.61" stroke="rgba(25, 40, 73, 0.93)" stroke-width="1.5"></path><path d="M1593.24 489.61L1593.24 489.61" stroke="rgba(25, 40, 73, 0.93)" stroke-width="1.5"></path><path d="M1593.24 489.61L1579.66 657.96" stroke="rgba(25, 40, 73, 0.93)" stroke-width="1.5"></path><path d="M1593.24 489.61L1412.47 639.32" stroke="rgba(25, 40, 73, 0.93)" stroke-width="1.5"></path><path d="M1579.66 657.96L1579.66 657.96" stroke="rgba(25, 40, 73, 0.93)" stroke-width="1.5"></path><path d="M1579.66 657.96L1402.86 373.42" stroke="rgba(25, 40, 73, 0.93)" stroke-width="1.5"></path><path d="M1579.66 657.96L1260.56 513.34" stroke="rgba(25, 40, 73, 0.93)" stroke-width="1.5"></path><path d="M1579.66 657.96L1602.4 243.05" stroke="rgba(25, 40, 73, 0.93)" stroke-width="1.5"></path><path d="M1579.66 657.96L1157.34 702.14" stroke="rgba(25, 40, 73, 0.93)" stroke-width="1.5"></path><circle r="5" cx="-86.1" cy="401.7" fill="rgba(25, 40, 73, 0.93)"></circle><circle r="5" cx="-48.11" cy="678.68" fill="rgba(25, 40, 73, 0.93)"></circle><circle r="5" cx="102.41" cy="385.39" fill="rgba(25, 40, 73, 0.93)"></circle><circle r="5" cx="46.31" cy="559.67" fill="rgba(25, 40, 73, 0.93)"></circle><circle r="5" cx="110.59" cy="663.1" fill="rgba(25, 40, 73, 0.93)"></circle><circle r="5" cx="252.37" cy="408.64" fill="rgba(25, 40, 73, 0.93)"></circle><circle r="5" cx="226.08" cy="506.79" fill="rgba(25, 40, 73, 0.93)"></circle><circle r="5" cx="196.66" cy="693.56" fill="rgba(25, 40, 73, 0.93)"></circle><circle r="5" cx="374.9" cy="385.56" fill="rgba(25, 40, 73, 0.93)"></circle><circle r="5" cx="398.63" cy="490.52" fill="rgba(25, 40, 73, 0.93)"></circle><circle r="5" cx="353.24" cy="660.38" fill="rgba(25, 40, 73, 0.93)"></circle><circle r="5" cx="534.46" cy="389.62" fill="rgba(25, 40, 73, 0.93)"></circle><circle r="5" cx="500.43" cy="488.33" fill="rgba(25, 40, 73, 0.93)"></circle><circle r="5" cx="501.01" cy="711.61" fill="rgba(25, 40, 73, 0.93)"></circle><circle r="5" cx="663.91" cy="240.3" fill="rgba(25, 40, 73, 0.93)"></circle><circle r="5" cx="644.9" cy="386.48" fill="rgba(25, 40, 73, 0.93)"></circle><circle r="5" cx="644.87" cy="559.91" fill="rgba(25, 40, 73, 0.93)"></circle><circle r="5" cx="651.17" cy="663.77" fill="rgba(25, 40, 73, 0.93)"></circle><circle r="5" cx="840.17" cy="195.72" fill="rgba(25, 40, 73, 0.93)"></circle><circle r="5" cx="809.48" cy="382.52" fill="rgba(25, 40, 73, 0.93)"></circle><circle r="5" cx="858.91" cy="505.7" fill="rgba(25, 40, 73, 0.93)"></circle><circle r="5" cx="857.16" cy="640.29" fill="rgba(25, 40, 73, 0.93)"></circle><circle r="5" cx="988.38" cy="-84.26" fill="rgba(25, 40, 73, 0.93)"></circle><circle r="5" cx="973.87" cy="108.35" fill="rgba(25, 40, 73, 0.93)"></circle><circle r="5" cx="997.85" cy="235.43" fill="rgba(25, 40, 73, 0.93)"></circle><circle r="5" cx="992.19" cy="341.91" fill="rgba(25, 40, 73, 0.93)"></circle><circle r="5" cx="983.75" cy="539.42" fill="rgba(25, 40, 73, 0.93)"></circle><circle r="5" cx="945.72" cy="641.93" fill="rgba(25, 40, 73, 0.93)"></circle><circle r="5" cx="1109.07" cy="-82.92" fill="rgba(25, 40, 73, 0.93)"></circle><circle r="5" cx="1154.69" cy="84.73" fill="rgba(25, 40, 73, 0.93)"></circle><circle r="5" cx="1131.38" cy="367.55" fill="rgba(25, 40, 73, 0.93)"></circle><circle r="5" cx="1157.22" cy="510.22" fill="rgba(25, 40, 73, 0.93)"></circle><circle r="5" cx="1157.34" cy="702.14" fill="rgba(25, 40, 73, 0.93)"></circle><circle r="5" cx="1254.09" cy="-68.48" fill="rgba(25, 40, 73, 0.93)"></circle><circle r="5" cx="1295.1" cy="236.31" fill="rgba(25, 40, 73, 0.93)"></circle><circle r="5" cx="1260.56" cy="513.34" fill="rgba(25, 40, 73, 0.93)"></circle><circle r="5" cx="1388.25" cy="-105.42" fill="rgba(25, 40, 73, 0.93)"></circle><circle r="5" cx="1411.47" cy="76.39" fill="rgba(25, 40, 73, 0.93)"></circle><circle r="5" cx="1402.86" cy="373.42" fill="rgba(25, 40, 73, 0.93)"></circle><circle r="5" cx="1412.47" cy="639.32" fill="rgba(25, 40, 73, 0.93)"></circle><circle r="5" cx="1595.71" cy="-101" fill="rgba(25, 40, 73, 0.93)"></circle><circle r="5" cx="1575.21" cy="98.22" fill="rgba(25, 40, 73, 0.93)"></circle><circle r="5" cx="1602.4" cy="243.05" fill="rgba(25, 40, 73, 0.93)"></circle><circle r="5" cx="1593.24" cy="489.61" fill="rgba(25, 40, 73, 0.93)"></circle><circle r="5" cx="1579.66" cy="657.96" fill="rgba(25, 40, 73, 0.93)"></circle><path d="M-50.01 690.36L-50.01 690.36" stroke="hsla(221.29999999999995, 49%, 25%, 0.93)" stroke-width="1.5"></path><path d="M-50.01 690.36L58.15 708.27" stroke="hsla(221.29999999999995, 49%, 25%, 0.93)" stroke-width="1.5"></path><path d="M-50.01 690.36L-68.52 555.31" stroke="hsla(221.29999999999995, 49%, 25%, 0.93)" stroke-width="1.5"></path><path d="M712.01 508.66L712.01 508.66" stroke="hsla(221.29999999999995, 49%, 25%, 0.93)" stroke-width="1.5"></path><path d="M712.01 508.66L856.42 492.87" stroke="hsla(221.29999999999995, 49%, 25%, 0.93)" stroke-width="1.5"></path><path d="M712.01 508.66L558.64 516.2" stroke="hsla(221.29999999999995, 49%, 25%, 0.93)" stroke-width="1.5"></path><path d="M856.42 492.87L856.42 492.87" stroke="hsla(221.29999999999995, 49%, 25%, 0.93)" stroke-width="1.5"></path><path d="M856.42 492.87L859.95 407.31" stroke="hsla(221.29999999999995, 49%, 25%, 0.93)" stroke-width="1.5"></path><path d="M856.42 492.87L959.39 544.3" stroke="hsla(221.29999999999995, 49%, 25%, 0.93)" stroke-width="1.5"></path><path d="M845.95 684.44L845.95 684.44" stroke="hsla(221.29999999999995, 49%, 25%, 0.93)" stroke-width="1.5"></path><path d="M845.95 684.44L978.31 648.39" stroke="hsla(221.29999999999995, 49%, 25%, 0.93)" stroke-width="1.5"></path><path d="M845.95 684.44L691.97 668.17" stroke="hsla(221.29999999999995, 49%, 25%, 0.93)" stroke-width="1.5"></path><path d="M845.95 684.44L959.39 544.3" stroke="hsla(221.29999999999995, 49%, 25%, 0.93)" stroke-width="1.5"></path><path d="M1144.57 100.62L1144.57 100.62" stroke="hsla(221.29999999999995, 49%, 25%, 0.93)" stroke-width="1.5"></path><path d="M1144.57 100.62L1107.63 196.01" stroke="hsla(221.29999999999995, 49%, 25%, 0.93)" stroke-width="1.5"></path><path d="M1144.57 100.62L1295.1 68.51" stroke="hsla(221.29999999999995, 49%, 25%, 0.93)" stroke-width="1.5"></path><path d="M1144.57 100.62L1265.62 204.1" stroke="hsla(221.29999999999995, 49%, 25%, 0.93)" stroke-width="1.5"></path><path d="M1144.57 100.62L992.82 260.08" stroke="hsla(221.29999999999995, 49%, 25%, 0.93)" stroke-width="1.5"></path><path d="M1144.57 100.62L1283.92 -94.92" stroke="hsla(221.29999999999995, 49%, 25%, 0.93)" stroke-width="1.5"></path><path d="M1144.57 100.62L1387.96 193.16" stroke="hsla(221.29999999999995, 49%, 25%, 0.93)" stroke-width="1.5"></path><path d="M1249.09 700.21L1249.09 700.21" stroke="hsla(221.29999999999995, 49%, 25%, 0.93)" stroke-width="1.5"></path><path d="M1249.09 700.21L1150.86 684.68" stroke="hsla(221.29999999999995, 49%, 25%, 0.93)" stroke-width="1.5"></path><path d="M1249.09 700.21L1417.48 638.79" stroke="hsla(221.29999999999995, 49%, 25%, 0.93)" stroke-width="1.5"></path><path d="M1249.09 700.21L1136.38 547.44" stroke="hsla(221.29999999999995, 49%, 25%, 0.93)" stroke-width="1.5"></path><path d="M1249.09 700.21L1247.03 506.88" stroke="hsla(221.29999999999995, 49%, 25%, 0.93)" stroke-width="1.5"></path><path d="M1539.25 -103.9L1539.25 -103.9" stroke="hsla(221.29999999999995, 49%, 25%, 0.93)" stroke-width="1.5"></path><path d="M1539.25 -103.9L1430.99 -42.86" stroke="hsla(221.29999999999995, 49%, 25%, 0.93)" stroke-width="1.5"></path><path d="M1539.25 -103.9L1607.27 63.65" stroke="hsla(221.29999999999995, 49%, 25%, 0.93)" stroke-width="1.5"></path><path d="M1539.25 -103.9L1407.47 72.57" stroke="hsla(221.29999999999995, 49%, 25%, 0.93)" stroke-width="1.5"></path><path d="M1539.25 -103.9L1283.92 -94.92" stroke="hsla(221.29999999999995, 49%, 25%, 0.93)" stroke-width="1.5"></path><path d="M1539.25 -103.9L1295.1 68.51" stroke="hsla(221.29999999999995, 49%, 25%, 0.93)" stroke-width="1.5"></path><path d="M-68.52 555.31L-68.52 555.31" stroke="hsla(221.29999999999995, 49%, 25%, 0.93)" stroke-width="1.5"></path><path d="M-68.52 555.31L92.29 533.03" stroke="hsla(221.29999999999995, 49%, 25%, 0.93)" stroke-width="1.5"></path><path d="M-68.52 555.31L58.15 708.27" stroke="hsla(221.29999999999995, 49%, 25%, 0.93)" stroke-width="1.5"></path><path d="M92.29 533.03L92.29 533.03" stroke="hsla(221.29999999999995, 49%, 25%, 0.93)" stroke-width="1.5"></path><path d="M92.29 533.03L58.15 708.27" stroke="hsla(221.29999999999995, 49%, 25%, 0.93)" stroke-width="1.5"></path><path d="M92.29 533.03L233.48 663.49" stroke="hsla(221.29999999999995, 49%, 25%, 0.93)" stroke-width="1.5"></path><path d="M92.29 533.03L-50.01 690.36" stroke="hsla(221.29999999999995, 49%, 25%, 0.93)" stroke-width="1.5"></path><path d="M58.15 708.27L58.15 708.27" stroke="hsla(221.29999999999995, 49%, 25%, 0.93)" stroke-width="1.5"></path><path d="M58.15 708.27L233.48 663.49" stroke="hsla(221.29999999999995, 49%, 25%, 0.93)" stroke-width="1.5"></path><path d="M58.15 708.27L367.19 658.65" stroke="hsla(221.29999999999995, 49%, 25%, 0.93)" stroke-width="1.5"></path><path d="M58.15 708.27L412.37 525.56" stroke="hsla(221.29999999999995, 49%, 25%, 0.93)" stroke-width="1.5"></path><path d="M233.48 663.49L233.48 663.49" stroke="hsla(221.29999999999995, 49%, 25%, 0.93)" stroke-width="1.5"></path><path d="M233.48 663.49L367.19 658.65" stroke="hsla(221.29999999999995, 49%, 25%, 0.93)" stroke-width="1.5"></path><path d="M412.37 525.56L412.37 525.56" stroke="hsla(221.29999999999995, 49%, 25%, 0.93)" stroke-width="1.5"></path><path d="M412.37 525.56L367.19 658.65" stroke="hsla(221.29999999999995, 49%, 25%, 0.93)" stroke-width="1.5"></path><path d="M412.37 525.56L558.64 516.2" stroke="hsla(221.29999999999995, 49%, 25%, 0.93)" stroke-width="1.5"></path><path d="M412.37 525.56L533.68 684.09" stroke="hsla(221.29999999999995, 49%, 25%, 0.93)" stroke-width="1.5"></path><path d="M367.19 658.65L367.19 658.65" stroke="hsla(221.29999999999995, 49%, 25%, 0.93)" stroke-width="1.5"></path><path d="M367.19 658.65L533.68 684.09" stroke="hsla(221.29999999999995, 49%, 25%, 0.93)" stroke-width="1.5"></path><path d="M367.19 658.65L558.64 516.2" stroke="hsla(221.29999999999995, 49%, 25%, 0.93)" stroke-width="1.5"></path><path d="M558.64 516.2L558.64 516.2" stroke="hsla(221.29999999999995, 49%, 25%, 0.93)" stroke-width="1.5"></path><path d="M558.64 516.2L533.68 684.09" stroke="hsla(221.29999999999995, 49%, 25%, 0.93)" stroke-width="1.5"></path><path d="M558.64 516.2L691.97 668.17" stroke="hsla(221.29999999999995, 49%, 25%, 0.93)" stroke-width="1.5"></path><path d="M533.68 684.09L533.68 684.09" stroke="hsla(221.29999999999995, 49%, 25%, 0.93)" stroke-width="1.5"></path><path d="M533.68 684.09L691.97 668.17" stroke="hsla(221.29999999999995, 49%, 25%, 0.93)" stroke-width="1.5"></path><path d="M533.68 684.09L712.01 508.66" stroke="hsla(221.29999999999995, 49%, 25%, 0.93)" stroke-width="1.5"></path><path d="M533.68 684.09L233.48 663.49" stroke="hsla(221.29999999999995, 49%, 25%, 0.93)" stroke-width="1.5"></path><path d="M691.97 668.17L691.97 668.17" stroke="hsla(221.29999999999995, 49%, 25%, 0.93)" stroke-width="1.5"></path><path d="M691.97 668.17L712.01 508.66" stroke="hsla(221.29999999999995, 49%, 25%, 0.93)" stroke-width="1.5"></path><path d="M859.95 407.31L859.95 407.31" stroke="hsla(221.29999999999995, 49%, 25%, 0.93)" stroke-width="1.5"></path><path d="M859.95 407.31L990.26 399.08" stroke="hsla(221.29999999999995, 49%, 25%, 0.93)" stroke-width="1.5"></path><path d="M859.95 407.31L959.39 544.3" stroke="hsla(221.29999999999995, 49%, 25%, 0.93)" stroke-width="1.5"></path><path d="M992.82 260.08L992.82 260.08" stroke="hsla(221.29999999999995, 49%, 25%, 0.93)" stroke-width="1.5"></path><path d="M992.82 260.08L1107.63 196.01" stroke="hsla(221.29999999999995, 49%, 25%, 0.93)" stroke-width="1.5"></path><path d="M990.26 399.08L990.26 399.08" stroke="hsla(221.29999999999995, 49%, 25%, 0.93)" stroke-width="1.5"></path><path d="M990.26 399.08L1120.64 385.01" stroke="hsla(221.29999999999995, 49%, 25%, 0.93)" stroke-width="1.5"></path><path d="M990.26 399.08L992.82 260.08" stroke="hsla(221.29999999999995, 49%, 25%, 0.93)" stroke-width="1.5"></path><path d="M990.26 399.08L959.39 544.3" stroke="hsla(221.29999999999995, 49%, 25%, 0.93)" stroke-width="1.5"></path><path d="M990.26 399.08L856.42 492.87" stroke="hsla(221.29999999999995, 49%, 25%, 0.93)" stroke-width="1.5"></path><path d="M959.39 544.3L959.39 544.3" stroke="hsla(221.29999999999995, 49%, 25%, 0.93)" stroke-width="1.5"></path><path d="M959.39 544.3L978.31 648.39" stroke="hsla(221.29999999999995, 49%, 25%, 0.93)" stroke-width="1.5"></path><path d="M978.31 648.39L978.31 648.39" stroke="hsla(221.29999999999995, 49%, 25%, 0.93)" stroke-width="1.5"></path><path d="M978.31 648.39L1150.86 684.68" stroke="hsla(221.29999999999995, 49%, 25%, 0.93)" stroke-width="1.5"></path><path d="M978.31 648.39L1136.38 547.44" stroke="hsla(221.29999999999995, 49%, 25%, 0.93)" stroke-width="1.5"></path><path d="M1107.63 196.01L1107.63 196.01" stroke="hsla(221.29999999999995, 49%, 25%, 0.93)" stroke-width="1.5"></path><path d="M1120.64 385.01L1120.64 385.01" stroke="hsla(221.29999999999995, 49%, 25%, 0.93)" stroke-width="1.5"></path><path d="M1120.64 385.01L1136.38 547.44" stroke="hsla(221.29999999999995, 49%, 25%, 0.93)" stroke-width="1.5"></path><path d="M1120.64 385.01L1247.03 506.88" stroke="hsla(221.29999999999995, 49%, 25%, 0.93)" stroke-width="1.5"></path><path d="M1120.64 385.01L992.82 260.08" stroke="hsla(221.29999999999995, 49%, 25%, 0.93)" stroke-width="1.5"></path><path d="M1120.64 385.01L1302.59 359.12" stroke="hsla(221.29999999999995, 49%, 25%, 0.93)" stroke-width="1.5"></path><path d="M1136.38 547.44L1136.38 547.44" stroke="hsla(221.29999999999995, 49%, 25%, 0.93)" stroke-width="1.5"></path><path d="M1136.38 547.44L1247.03 506.88" stroke="hsla(221.29999999999995, 49%, 25%, 0.93)" stroke-width="1.5"></path><path d="M1136.38 547.44L1150.86 684.68" stroke="hsla(221.29999999999995, 49%, 25%, 0.93)" stroke-width="1.5"></path><path d="M1136.38 547.44L959.39 544.3" stroke="hsla(221.29999999999995, 49%, 25%, 0.93)" stroke-width="1.5"></path><path d="M1150.86 684.68L1150.86 684.68" stroke="hsla(221.29999999999995, 49%, 25%, 0.93)" stroke-width="1.5"></path><path d="M1150.86 684.68L1247.03 506.88" stroke="hsla(221.29999999999995, 49%, 25%, 0.93)" stroke-width="1.5"></path><path d="M1150.86 684.68L959.39 544.3" stroke="hsla(221.29999999999995, 49%, 25%, 0.93)" stroke-width="1.5"></path><path d="M1150.86 684.68L1417.48 638.79" stroke="hsla(221.29999999999995, 49%, 25%, 0.93)" stroke-width="1.5"></path><path d="M1283.92 -94.92L1283.92 -94.92" stroke="hsla(221.29999999999995, 49%, 25%, 0.93)" stroke-width="1.5"></path><path d="M1283.92 -94.92L1430.99 -42.86" stroke="hsla(221.29999999999995, 49%, 25%, 0.93)" stroke-width="1.5"></path><path d="M1283.92 -94.92L1295.1 68.51" stroke="hsla(221.29999999999995, 49%, 25%, 0.93)" stroke-width="1.5"></path><path d="M1283.92 -94.92L1407.47 72.57" stroke="hsla(221.29999999999995, 49%, 25%, 0.93)" stroke-width="1.5"></path><path d="M1295.1 68.51L1295.1 68.51" stroke="hsla(221.29999999999995, 49%, 25%, 0.93)" stroke-width="1.5"></path><path d="M1295.1 68.51L1407.47 72.57" stroke="hsla(221.29999999999995, 49%, 25%, 0.93)" stroke-width="1.5"></path><path d="M1295.1 68.51L1265.62 204.1" stroke="hsla(221.29999999999995, 49%, 25%, 0.93)" stroke-width="1.5"></path><path d="M1295.1 68.51L1387.96 193.16" stroke="hsla(221.29999999999995, 49%, 25%, 0.93)" stroke-width="1.5"></path><path d="M1295.1 68.51L1430.99 -42.86" stroke="hsla(221.29999999999995, 49%, 25%, 0.93)" stroke-width="1.5"></path><path d="M1265.62 204.1L1265.62 204.1" stroke="hsla(221.29999999999995, 49%, 25%, 0.93)" stroke-width="1.5"></path><path d="M1265.62 204.1L1387.96 193.16" stroke="hsla(221.29999999999995, 49%, 25%, 0.93)" stroke-width="1.5"></path><path d="M1265.62 204.1L1107.63 196.01" stroke="hsla(221.29999999999995, 49%, 25%, 0.93)" stroke-width="1.5"></path><path d="M1265.62 204.1L1302.59 359.12" stroke="hsla(221.29999999999995, 49%, 25%, 0.93)" stroke-width="1.5"></path><path d="M1302.59 359.12L1302.59 359.12" stroke="hsla(221.29999999999995, 49%, 25%, 0.93)" stroke-width="1.5"></path><path d="M1302.59 359.12L1449.7 372.38" stroke="hsla(221.29999999999995, 49%, 25%, 0.93)" stroke-width="1.5"></path><path d="M1302.59 359.12L1247.03 506.88" stroke="hsla(221.29999999999995, 49%, 25%, 0.93)" stroke-width="1.5"></path><path d="M1247.03 506.88L1247.03 506.88" stroke="hsla(221.29999999999995, 49%, 25%, 0.93)" stroke-width="1.5"></path><path d="M1430.99 -42.86L1430.99 -42.86" stroke="hsla(221.29999999999995, 49%, 25%, 0.93)" stroke-width="1.5"></path><path d="M1430.99 -42.86L1407.47 72.57" stroke="hsla(221.29999999999995, 49%, 25%, 0.93)" stroke-width="1.5"></path><path d="M1407.47 72.57L1407.47 72.57" stroke="hsla(221.29999999999995, 49%, 25%, 0.93)" stroke-width="1.5"></path><path d="M1407.47 72.57L1387.96 193.16" stroke="hsla(221.29999999999995, 49%, 25%, 0.93)" stroke-width="1.5"></path><path d="M1407.47 72.57L1265.62 204.1" stroke="hsla(221.29999999999995, 49%, 25%, 0.93)" stroke-width="1.5"></path><path d="M1407.47 72.57L1607.27 63.65" stroke="hsla(221.29999999999995, 49%, 25%, 0.93)" stroke-width="1.5"></path><path d="M1387.96 193.16L1387.96 193.16" stroke="hsla(221.29999999999995, 49%, 25%, 0.93)" stroke-width="1.5"></path><path d="M1387.96 193.16L1302.59 359.12" stroke="hsla(221.29999999999995, 49%, 25%, 0.93)" stroke-width="1.5"></path><path d="M1387.96 193.16L1449.7 372.38" stroke="hsla(221.29999999999995, 49%, 25%, 0.93)" stroke-width="1.5"></path><path d="M1449.7 372.38L1449.7 372.38" stroke="hsla(221.29999999999995, 49%, 25%, 0.93)" stroke-width="1.5"></path><path d="M1449.7 372.38L1432.42 554.75" stroke="hsla(221.29999999999995, 49%, 25%, 0.93)" stroke-width="1.5"></path><path d="M1449.7 372.38L1593.04 226.55" stroke="hsla(221.29999999999995, 49%, 25%, 0.93)" stroke-width="1.5"></path><path d="M1449.7 372.38L1577.95 554.03" stroke="hsla(221.29999999999995, 49%, 25%, 0.93)" stroke-width="1.5"></path><path d="M1432.42 554.75L1432.42 554.75" stroke="hsla(221.29999999999995, 49%, 25%, 0.93)" stroke-width="1.5"></path><path d="M1432.42 554.75L1417.48 638.79" stroke="hsla(221.29999999999995, 49%, 25%, 0.93)" stroke-width="1.5"></path><path d="M1432.42 554.75L1577.95 554.03" stroke="hsla(221.29999999999995, 49%, 25%, 0.93)" stroke-width="1.5"></path><path d="M1417.48 638.79L1417.48 638.79" stroke="hsla(221.29999999999995, 49%, 25%, 0.93)" stroke-width="1.5"></path><path d="M1417.48 638.79L1581.99 692.19" stroke="hsla(221.29999999999995, 49%, 25%, 0.93)" stroke-width="1.5"></path><path d="M1417.48 638.79L1577.95 554.03" stroke="hsla(221.29999999999995, 49%, 25%, 0.93)" stroke-width="1.5"></path><path d="M1417.48 638.79L1247.03 506.88" stroke="hsla(221.29999999999995, 49%, 25%, 0.93)" stroke-width="1.5"></path><path d="M1417.48 638.79L1449.7 372.38" stroke="hsla(221.29999999999995, 49%, 25%, 0.93)" stroke-width="1.5"></path><path d="M1607.27 63.65L1607.27 63.65" stroke="hsla(221.29999999999995, 49%, 25%, 0.93)" stroke-width="1.5"></path><path d="M1607.27 63.65L1593.04 226.55" stroke="hsla(221.29999999999995, 49%, 25%, 0.93)" stroke-width="1.5"></path><path d="M1607.27 63.65L1430.99 -42.86" stroke="hsla(221.29999999999995, 49%, 25%, 0.93)" stroke-width="1.5"></path><path d="M1607.27 63.65L1387.96 193.16" stroke="hsla(221.29999999999995, 49%, 25%, 0.93)" stroke-width="1.5"></path><path d="M1593.04 226.55L1593.04 226.55" stroke="hsla(221.29999999999995, 49%, 25%, 0.93)" stroke-width="1.5"></path><path d="M1593.04 226.55L1387.96 193.16" stroke="hsla(221.29999999999995, 49%, 25%, 0.93)" stroke-width="1.5"></path><path d="M1593.04 226.55L1407.47 72.57" stroke="hsla(221.29999999999995, 49%, 25%, 0.93)" stroke-width="1.5"></path><path d="M1593.04 226.55L1430.99 -42.86" stroke="hsla(221.29999999999995, 49%, 25%, 0.93)" stroke-width="1.5"></path><path d="M1577.95 554.03L1577.95 554.03" stroke="hsla(221.29999999999995, 49%, 25%, 0.93)" stroke-width="1.5"></path><path d="M1577.95 554.03L1581.99 692.19" stroke="hsla(221.29999999999995, 49%, 25%, 0.93)" stroke-width="1.5"></path><path d="M1577.95 554.03L1593.04 226.55" stroke="hsla(221.29999999999995, 49%, 25%, 0.93)" stroke-width="1.5"></path><path d="M1577.95 554.03L1247.03 506.88" stroke="hsla(221.29999999999995, 49%, 25%, 0.93)" stroke-width="1.5"></path><path d="M1581.99 692.19L1581.99 692.19" stroke="hsla(221.29999999999995, 49%, 25%, 0.93)" stroke-width="1.5"></path><path d="M1581.99 692.19L1432.42 554.75" stroke="hsla(221.29999999999995, 49%, 25%, 0.93)" stroke-width="1.5"></path><path d="M1581.99 692.19L1249.09 700.21" stroke="hsla(221.29999999999995, 49%, 25%, 0.93)" stroke-width="1.5"></path><circle r="25" cx="-50.01" cy="690.36" fill="url(&quot;#SvgjsRadialGradient1530&quot;)"></circle><circle r="25" cx="712.01" cy="508.66" fill="url(&quot;#SvgjsRadialGradient1530&quot;)"></circle><circle r="25" cx="856.42" cy="492.87" fill="url(&quot;#SvgjsRadialGradient1530&quot;)"></circle><circle r="25" cx="845.95" cy="684.44" fill="url(&quot;#SvgjsRadialGradient1530&quot;)"></circle><circle r="25" cx="1144.57" cy="100.62" fill="url(&quot;#SvgjsRadialGradient1530&quot;)"></circle><circle r="25" cx="1249.09" cy="700.21" fill="url(&quot;#SvgjsRadialGradient1530&quot;)"></circle><circle r="25" cx="1539.25" cy="-103.9" fill="url(&quot;#SvgjsRadialGradient1530&quot;)"></circle><circle r="5" cx="-68.52" cy="555.31" fill="rgba(148, 155, 170, 0.9650000000000001)"></circle><circle r="5" cx="92.29" cy="533.03" fill="rgba(148, 155, 170, 0.9650000000000001)"></circle><circle r="5" cx="58.15" cy="708.27" fill="rgba(148, 155, 170, 0.9650000000000001)"></circle><circle r="5" cx="233.48" cy="663.49" fill="rgba(148, 155, 170, 0.9650000000000001)"></circle><circle r="5" cx="412.37" cy="525.56" fill="rgba(148, 155, 170, 0.9650000000000001)"></circle><circle r="5" cx="367.19" cy="658.65" fill="rgba(148, 155, 170, 0.9650000000000001)"></circle><circle r="5" cx="558.64" cy="516.2" fill="rgba(148, 155, 170, 0.9650000000000001)"></circle><circle r="5" cx="533.68" cy="684.09" fill="rgba(148, 155, 170, 0.9650000000000001)"></circle><circle r="5" cx="691.97" cy="668.17" fill="rgba(148, 155, 170, 0.9650000000000001)"></circle><circle r="5" cx="859.95" cy="407.31" fill="rgba(148, 155, 170, 0.9650000000000001)"></circle><circle r="5" cx="992.82" cy="260.08" fill="rgba(148, 155, 170, 0.9650000000000001)"></circle><circle r="5" cx="990.26" cy="399.08" fill="rgba(148, 155, 170, 0.9650000000000001)"></circle><circle r="5" cx="959.39" cy="544.3" fill="rgba(148, 155, 170, 0.9650000000000001)"></circle><circle r="5" cx="978.31" cy="648.39" fill="rgba(148, 155, 170, 0.9650000000000001)"></circle><circle r="5" cx="1107.63" cy="196.01" fill="rgba(148, 155, 170, 0.9650000000000001)"></circle><circle r="5" cx="1120.64" cy="385.01" fill="rgba(148, 155, 170, 0.9650000000000001)"></circle><circle r="5" cx="1136.38" cy="547.44" fill="rgba(148, 155, 170, 0.9650000000000001)"></circle><circle r="5" cx="1150.86" cy="684.68" fill="rgba(148, 155, 170, 0.9650000000000001)"></circle><circle r="5" cx="1283.92" cy="-94.92" fill="rgba(148, 155, 170, 0.9650000000000001)"></circle><circle r="5" cx="1295.1" cy="68.51" fill="rgba(148, 155, 170, 0.9650000000000001)"></circle><circle r="5" cx="1265.62" cy="204.1" fill="rgba(148, 155, 170, 0.9650000000000001)"></circle><circle r="5" cx="1302.59" cy="359.12" fill="rgba(148, 155, 170, 0.9650000000000001)"></circle><circle r="5" cx="1247.03" cy="506.88" fill="rgba(148, 155, 170, 0.9650000000000001)"></circle><circle r="5" cx="1430.99" cy="-42.86" fill="rgba(148, 155, 170, 0.9650000000000001)"></circle><circle r="5" cx="1407.47" cy="72.57" fill="rgba(148, 155, 170, 0.9650000000000001)"></circle><circle r="5" cx="1387.96" cy="193.16" fill="rgba(148, 155, 170, 0.9650000000000001)"></circle><circle r="5" cx="1449.7" cy="372.38" fill="rgba(148, 155, 170, 0.9650000000000001)"></circle><circle r="5" cx="1432.42" cy="554.75" fill="rgba(148, 155, 170, 0.9650000000000001)"></circle><circle r="5" cx="1417.48" cy="638.79" fill="rgba(148, 155, 170, 0.9650000000000001)"></circle><circle r="5" cx="1607.27" cy="63.65" fill="rgba(148, 155, 170, 0.9650000000000001)"></circle><circle r="5" cx="1593.04" cy="226.55" fill="rgba(148, 155, 170, 0.9650000000000001)"></circle><circle r="5" cx="1577.95" cy="554.03" fill="rgba(148, 155, 170, 0.9650000000000001)"></circle><circle r="5" cx="1581.99" cy="692.19" fill="rgba(148, 155, 170, 0.9650000000000001)"></circle></g><defs><mask id="SvgjsMask1529"><rect width="1440" height="600" fill="#ffffff"></rect></mask><radialGradient id="SvgjsRadialGradient1530"><stop stop-color="#ffffff" offset="0.1"></stop><stop stop-color="rgba(25, 40, 73, 0.93)" offset="0.2"></stop><stop stop-color="rgba(25, 40, 73, 0)" offset="1"></stop></radialGradient></defs></svg>